<?xml version="1.0" encoding="UTF-8" standalone="no"?>
<!-- Created with Inkscape (http://www.inkscape.org/) -->

<svg
   xmlns:dc="http://purl.org/dc/elements/1.1/"
   xmlns:cc="http://creativecommons.org/ns#"
   xmlns:rdf="http://www.w3.org/1999/02/22-rdf-syntax-ns#"
   xmlns:svg="http://www.w3.org/2000/svg"
   xmlns="http://www.w3.org/2000/svg"
   xmlns:sodipodi="http://sodipodi.sourceforge.net/DTD/sodipodi-0.dtd"
   xmlns:inkscape="http://www.inkscape.org/namespaces/inkscape"
   width="500mm"
   height="200mm"
   viewBox="0 0 500 200.00001"
   version="1.1"
   id="svg8"
   inkscape:export-filename="/home/germansc/500x200.png"
   inkscape:export-xdpi="25.4"
   inkscape:export-ydpi="25.4"
   inkscape:version="0.92.1 unknown"
   sodipodi:docname="logo.svg">
  <defs
     id="defs2" />
  <sodipodi:namedview
     id="base"
     pagecolor="#ffffff"
     bordercolor="#666666"
     borderopacity="1.0"
     inkscape:pageopacity="0.0"
     inkscape:pageshadow="2"
     inkscape:zoom="0.70000002"
     inkscape:cx="921.45822"
     inkscape:cy="258.23248"
     inkscape:document-units="mm"
     inkscape:current-layer="layer1"
     showgrid="false"
     fit-margin-top="0"
     fit-margin-left="0"
     fit-margin-right="0"
     fit-margin-bottom="0"
     inkscape:window-width="1600"
     inkscape:window-height="844"
     inkscape:window-x="0"
     inkscape:window-y="28"
     inkscape:window-maximized="1" />
  <metadata
     id="metadata5">
    <rdf:RDF>
      <cc:Work
         rdf:about="">
        <dc:format>image/svg+xml</dc:format>
        <dc:type
           rdf:resource="http://purl.org/dc/dcmitype/StillImage" />
        <dc:title />
      </cc:Work>
    </rdf:RDF>
  </metadata>
  <g
     inkscape:label="Layer 1"
     inkscape:groupmode="layer"
     id="layer1"
     transform="translate(208.01643,430.58466)">
    <path
       id="path4518"
       d="m -31.604331,-322.36424 c 11.278979,-38.64078 -34.402119,-41.18107 -34.402119,-41.18107 1.146717,-1.55704 0.391998,-3.98098 0.391998,-3.98098 7.090875,-8.01287 0.921628,-7.39234 0.921628,-7.39234 5.86458,-14.48285 -12.018691,-18.79789 -12.018691,-18.79789 3.273115,-8.98161 -8.092823,-10.7523 -10.792522,-11.04626 v -0.0508 c 0,0 -0.10184,0.007 -0.283142,0.0252 -0.174287,-0.0182 -0.275761,-0.0252 -0.275761,-0.0252 v 0.0509 c -2.70007,0.29397 -14.05851,2.06465 -10.799902,11.04626 0,0 -17.868888,4.31505 -12.011688,18.7979 0,0 -6.169,-0.62054 0.922,7.39234 0,0 -0.74771,2.42393 0.39913,3.98097 0,0 -45.68823,2.54029 -34.40962,41.18107 0,0 -10.05932,8.61151 -1.96687,12.90465 0,0 -3.16414,15.72772 18.95028,31.84006 0,0 -10.09561,7.78065 -0.84906,8.08531 h 8.01989 c 0,0 8.35395,1.01966 0.79112,-11.81955 -0.52249,-0.86739 -0.99444,-1.64032 -1.43699,-2.32247 -0.50098,-1.31362 -0.82754,-3.17865 -0.33407,-5.63198 0,0 7.63527,7.00736 26.273755,4.10803 l 0.500612,1.70562 5.951534,0.1706 v 0.0215 l 0.275765,-0.0108 0.283143,0.0108 v -0.0215 l 5.944158,-0.1706 0.50798,-1.70562 c 18.631105,2.8992 26.280887,-4.10803 26.280887,-4.10803 0.486089,2.45333 0.159406,4.31836 -0.341076,5.63199 -0.435538,0.68227 -0.921999,1.45519 -1.436874,2.32246 -7.562943,12.83921 0.79064,11.81955 0.79064,11.81955 h 8.012869 c 9.246551,-0.30466 -0.84205,-8.08531 -0.84205,-8.08531 22.114794,-16.11234 18.957667,-31.84006 18.957667,-31.84006 8.085069,-4.29327 -1.974621,-12.90477 -1.974621,-12.90477 z M -135.9868,-317.378 c 6.15473,-11.63457 5.01503,-17.40062 5.01503,-17.40062 2.96832,2.2136 7.78064,-0.29065 7.78064,-0.29065 -1.92345,3.26967 0.57343,7.79135 0.57343,7.79135 -3.94125,4.22771 -2.11964,11.63457 -2.11964,11.63457 -2.30057,-2.31176 -11.24946,-1.73465 -11.24946,-1.73465 z m 50.674356,28.38896 c 0,0 -32.500806,1.22297 -39.076316,-26.71606 0,0 11.5037,18.89937 39.860308,17.46606 28.341727,-1.44437 33.269915,-18.28621 33.269915,-18.28621 0,0 3.295136,23.57712 -34.053907,27.53621 z m 34.475053,-26.65431 c 0,0 1.828993,-7.40674 -2.112131,-11.63457 0,0 2.48937,-4.52168 0.58092,-7.79135 0,0 4.804331,2.50425 7.780161,0.29065 0,0 -1.153852,5.76617 5.000635,17.40062 0,0 -8.941513,-0.57711 -11.249585,1.73465 z"
       inkscape:connector-curvature="0"
       style="fill:#28284f;fill-opacity:1;stroke-width:0.12299868" />
    <circle
       style="opacity:1;fill:#8787de;fill-opacity:1;stroke:#ffffff;stroke-width:5.29166698;stroke-linecap:round;stroke-linejoin:round;stroke-miterlimit:4;stroke-dasharray:none;stroke-dashoffset:0;stroke-opacity:1;paint-order:fill markers stroke"
       id="path4528"
       cx="-87.782188"
       cy="-325.90475"
       r="36.189423" />
    <path
       inkscape:connector-curvature="0"
       id="path4510"
       d="m -111.27491,-295.80394 c -0.0629,-0.053 -0.14432,-0.17013 -0.18083,-0.26039 -0.0626,-0.15467 -0.0664,-1.70662 -0.0667,-27.05181 l -2.7e-4,-26.88773 0.081,-0.33776 c 0.0847,-0.35289 0.16911,-0.548 0.36298,-0.83882 0.14172,-0.21259 3.7795,-3.87336 4.08703,-4.11286 0.67866,-0.52853 1.74643,-0.84994 2.71106,-0.81605 l 0.463,0.0163 20.212466,5.04114 c 17.972805,4.48256 20.235514,5.05501 20.420453,5.16632 0.286178,0.17223 0.848198,0.76998 1.083584,1.15247 0.237431,0.38581 0.415727,0.80462 0.48829,1.14696 0.04479,0.2113 0.05429,1.00784 0.05437,4.55732 0,4.75676 0.01212,4.51422 -0.251592,5.08558 -0.128984,0.27947 -0.196375,0.35581 -1.219452,1.38144 l -1.082924,1.08561 0.14924,0.0234 c 0.08209,0.0129 0.439256,0.0573 0.793706,0.0987 0.354455,0.0414 0.692962,0.10075 0.752239,0.13185 0.149874,0.0786 0.374183,0.32261 0.465719,0.50654 0.131284,0.2638 0.280579,0.79182 0.337938,1.19521 0.08372,0.58875 0.08191,14.4942 -0.0018,14.89003 -0.07099,0.33515 -0.262436,0.74041 -0.492559,1.04267 -0.09692,0.1273 -1.032481,1.0821 -2.079037,2.12177 -1.977673,1.96466 -2.094209,2.06553 -2.564174,2.21929 -0.203123,0.0664 -1.902354,0.1539 -16.852315,0.8673 -9.144527,0.43636 -16.856812,0.80407 -17.138412,0.81713 -0.2816,0.0131 -0.535,0.0427 -0.56311,0.066 -0.0281,0.0232 -1.3184,1.84813 -2.86731,4.05537 l -2.81619,4.01317 -1.82601,1.82518 c -1.00431,1.00385 -1.86732,1.84088 -1.91782,1.86008 -0.18033,0.0686 -0.42032,0.0414 -0.54249,-0.0614 z m 42.152882,-22.96915 c 0.04529,-0.0287 0.05068,-0.26498 0.03349,-1.46718 -0.01125,-0.78815 -0.02811,-1.44062 -0.03741,-1.44994 -0.0093,-0.009 -1.362058,-0.10275 -3.00609,-0.20764 -2.370975,-0.15126 -3.022498,-0.20404 -3.150438,-0.25523 -0.205925,-0.0824 -0.533479,-0.43455 -0.675944,-0.72672 -0.202521,-0.41531 -0.217785,-0.58443 -0.218514,-2.42129 -4.56e-4,-1.34323 0.01112,-1.74559 0.05765,-1.99093 0.07249,-0.3821 0.212973,-0.80062 0.342253,-1.01955 0.132865,-0.22502 3.828687,-3.91171 3.977836,-3.96801 0.168892,-0.0638 0.382531,-0.0512 1.581634,0.0933 0.594073,0.0716 1.088815,0.12527 1.099427,0.11932 0.01062,-0.006 0.01062,-1.12783 0,-2.49305 l -0.01927,-2.48223 -0.63651,-0.12573 c -0.350122,-0.0692 -7.205763,-1.42796 -15.234805,-3.01957 -10.40976,-2.06354 -14.610159,-2.88194 -14.639732,-2.85237 -0.02922,0.0292 -0.04861,2.88007 -0.06564,9.6547 -0.01329,5.28728 -0.03686,10.71718 -0.05238,12.06643 l -0.02822,2.4532 9.407148,0.031 c 10.327286,0.034 20.864939,0.0785 21.076495,0.089 0.07426,0.004 0.159314,-0.009 0.189007,-0.0275 z"
       style="fill:#de8787;stroke:#ffffff;stroke-width:0.60275567;stroke-miterlimit:4;stroke-dasharray:none" />
    <path
       inkscape:connector-curvature="0"
       id="path4502"
       d="m -111.15015,-295.83953 c -0.0718,-0.0313 -0.14808,-0.11075 -0.19288,-0.20101 -0.0728,-0.14676 -0.0743,-0.60497 -0.084,-26.95987 -0.009,-23.64631 -0.003,-26.85011 0.0478,-27.14556 0.071,-0.41271 0.1668,-0.66131 0.37362,-0.97004 0.14684,-0.2192 3.32628,-3.45916 3.39455,-3.45916 0.0157,0 -0.0309,0.12586 -0.10347,0.27968 -0.27249,0.57754 -0.25002,-1.90783 -0.24978,27.62573 1.5e-4,19.103 0.0121,26.70374 0.0422,26.81212 0.0231,0.0832 0.0932,0.20251 0.15586,0.26513 0.10177,0.10177 0.13355,0.11197 0.29911,0.0961 0.31482,-0.0303 0.0299,0.33883 2.95616,-3.83002 0.74463,-1.06085 1.84843,-2.63187 2.45288,-3.49116 0.60445,-0.85929 1.54725,-2.20058 2.095114,-2.98064 0.54786,-0.78007 1.015488,-1.43028 1.039172,-1.44492 0.02368,-0.0146 1.770532,-0.10922 3.881884,-0.21019 2.111352,-0.10096 10.027434,-0.47874 17.591296,-0.83951 7.563857,-0.36077 13.830587,-0.66536 13.926063,-0.6769 0.24623,-0.0298 0.672765,-0.24318 0.95426,-0.47753 0.292995,-0.24391 0.504729,-0.51837 0.708439,-0.9183 0.15685,-0.30792 0.171667,-0.253 0.03226,0.1196 -0.169206,0.45222 -0.343962,0.65012 -2.306194,2.61154 -1.112922,1.11245 -2.005872,1.97372 -2.131156,2.05554 -0.118595,0.0775 -0.309548,0.17723 -0.424343,0.22171 -0.19765,0.0766 -1.118749,0.12447 -17.391913,0.90378 -9.450765,0.4526 -17.203652,0.83075 -17.228642,0.84033 -0.0435,0.0167 -1.04812,1.43053 -3.47074,4.88458 -0.61757,0.88051 -1.37903,1.96547 -1.69213,2.41103 l -0.56927,0.8101 -1.8008,1.80728 c -1.02092,1.02459 -1.85456,1.83068 -1.92494,1.86131 -0.15211,0.0662 -0.22705,0.0661 -0.38041,-9.1e-4 z m 42.142685,-24.08103 c -0.0027,-0.69672 -0.01581,-1.39696 -0.02893,-1.55608 l -0.02388,-0.28931 -0.154307,-0.0287 c -0.08487,-0.0158 -1.43022,-0.10712 -2.98967,-0.20294 -1.564028,-0.0961 -2.904549,-0.19517 -2.989665,-0.22095 -0.198489,-0.0601 -0.518088,-0.37567 -0.658393,-0.65006 -0.209862,-0.41041 -0.220109,-0.50571 -0.238115,-2.21492 -0.01754,-1.6648 0.0051,-2.05376 0.149965,-2.57653 0.166062,-0.59924 0.193135,-0.63217 2.004669,-2.43839 0.915012,-0.91233 1.654197,-1.62407 1.642629,-1.58163 -0.01157,0.0424 -0.06515,0.19959 -0.11906,0.34923 -0.200471,0.55645 -0.22297,0.83828 -0.207187,2.59554 0.01276,1.41988 0.02255,1.63197 0.08403,1.81941 0.104416,0.31829 0.203606,0.49219 0.40127,0.7035 0.324142,0.34654 0.0992,0.31236 3.482129,0.52918 1.822988,0.11685 3.036339,0.20986 3.061112,0.23466 0.04046,0.0405 0.0603,6.68731 0.02009,6.7237 -0.0097,0.009 -0.785773,0.0283 -1.724623,0.0435 l -1.707004,0.0276 z m 2.351474,-11.75404 c -1.266117,-0.15154 -2.316359,-0.28998 -2.333873,-0.30765 -0.0175,-0.0177 -0.04055,-1.18074 -0.05114,-2.58461 l -0.01927,-2.5525 -0.63651,-0.12662 c -0.350094,-0.0697 -3.387983,-0.672 -6.750879,-1.33857 -3.362895,-0.66657 -9.965071,-1.97687 -14.671502,-2.91179 -4.706433,-0.93491 -8.570619,-1.69151 -8.587083,-1.68134 -0.04579,0.0283 -0.09377,-4.33978 -0.04818,-4.38538 0.02484,-0.0249 0.401699,0.037 1.092773,0.17945 1.629579,0.33581 30.80269,6.12756 32.282418,6.40905 0.28643,0.0545 0.585881,0.11595 0.665442,0.1366 l 0.144662,0.0375 v 2.4009 c 0,1.41854 0.01636,2.53466 0.03991,2.72779 0.07729,0.63275 0.229763,1.06455 0.486563,1.37794 0.264687,0.32302 0.314172,0.34058 1.38381,0.49111 0.530003,0.0746 1.038277,0.13568 1.129507,0.13576 0.309908,2.7e-4 0.491502,-0.16093 0.685326,-0.60839 0.12501,-0.2886 0.16752,-0.28949 0.07324,-0.002 -0.145545,0.44452 -0.219503,0.53615 -1.321804,1.63771 -0.591526,0.59113 -1.096246,1.11384 -1.121593,1.16157 -0.02533,0.0477 -0.06718,0.0849 -0.09296,0.0827 -0.02579,-0.002 -1.082774,-0.12814 -2.348882,-0.27968 z"
       style="fill:#424242;stroke:#ffffff;stroke-width:0.60275567;stroke-miterlimit:4;stroke-dasharray:none" />
    <path
       inkscape:connector-curvature="0"
       id="path4500"
       d="m -111.154,-295.84703 c -0.0683,-0.0337 -0.15378,-0.12306 -0.19289,-0.20164 -0.0677,-0.13614 -0.0702,-1.10092 -0.0702,-27.06747 0,-26.24206 0.002,-26.93365 0.0726,-27.21563 0.0995,-0.3964 0.2245,-0.64006 0.50897,-0.99242 0.28494,-0.35296 3.0116,-3.08462 3.04531,-3.05091 0.0127,0.0127 -0.002,0.083 -0.0326,0.15634 -0.0306,0.0733 -0.0856,0.26179 -0.12208,0.41886 -0.0625,0.26869 -0.0665,1.87241 -0.0674,27.10182 -9.6e-4,26.1776 7.3e-4,26.81971 0.0716,26.96239 0.10006,0.20145 0.25397,0.30548 0.45154,0.30521 0.30068,-4.3e-4 0.36888,-0.0754 1.37658,-1.51245 0.51756,-0.73809 1.08245,-1.54161 1.25533,-1.78561 0.17287,-0.24399 0.99645,-1.41575 1.83017,-2.6039 3.487289,-4.96983 4.134843,-5.88289 4.172181,-5.88289 0.03961,0 25.17479,-1.20203 31.847971,-1.52305 3.540358,-0.17032 3.600063,-0.1745 3.830924,-0.26831 0.399771,-0.16244 0.761288,-0.45298 1.131065,-0.90899 l 0.109483,-0.13502 -0.108503,0.21217 c -0.08631,0.16877 -0.507253,0.61136 -2.057937,2.16376 -1.176295,1.17759 -2.0352,2.00693 -2.165692,2.09113 -0.118936,0.0768 -0.309889,0.17686 -0.424338,0.22245 -0.234078,0.0932 0.495594,0.0531 -10.450109,0.5755 -8.756733,0.41796 -16.628499,0.79442 -20.578835,0.98416 -3.57173,0.17156 -3.58628,0.17259 -3.66972,0.25982 -0.0461,0.0482 -1.33734,1.87559 -2.86946,4.06093 l -2.78568,3.97337 -1.79994,1.80728 c -1.02124,1.02541 -1.85364,1.83066 -1.92407,1.86131 -0.15761,0.0686 -0.23173,0.067 -0.38427,-0.008 z m 42.145852,-24.37562 c -0.0108,-1.11126 -0.02638,-1.49442 -0.06222,-1.53025 -0.04842,-0.0484 -0.671525,-0.0944 -4.329762,-0.31926 -0.901726,-0.0554 -1.708936,-0.12157 -1.793801,-0.14696 -0.196093,-0.0587 -0.517829,-0.374 -0.65222,-0.63921 -0.216846,-0.42793 -0.227021,-0.5185 -0.244749,-2.17835 -0.01745,-1.63386 0.0097,-2.10863 0.149436,-2.61218 0.169949,-0.6125 0.197054,-0.64592 1.922347,-2.37076 0.869194,-0.86896 1.589762,-1.57052 1.601262,-1.55902 0.01148,0.0115 -0.01499,0.12357 -0.05886,0.24905 -0.174418,0.49883 -0.190466,0.70311 -0.190466,2.42512 0,0.94795 0.01649,1.71778 0.03937,1.83846 0.100424,0.52952 0.526745,1.10131 0.901812,1.20952 0.128058,0.0369 0.877395,0.098 2.144924,0.17484 2.913275,0.17654 3.791039,0.23363 3.882288,0.25248 0.08024,0.0166 0.08317,0.0396 0.106557,0.83714 0.01321,0.45105 0.0108,1.94845 -0.0054,3.32755 l -0.02939,2.50747 -1.683367,0.008 -1.68337,0.008 z m 2.285235,-11.51692 c -1.218054,-0.1459 -2.233576,-0.2842 -2.256718,-0.30733 -0.0293,-0.0292 -0.04564,-0.80155 -0.05377,-2.53797 -0.0064,-1.37275 -0.02465,-2.50892 -0.04046,-2.52481 -0.01581,-0.0159 -0.305679,-0.0823 -0.64411,-0.14751 -1.501343,-0.2894 -4.283015,-0.83976 -11.976069,-2.36949 -1.538231,-0.30587 -5.12294,-1.01778 -7.966017,-1.58203 -9.094421,-1.8049 -9.98516,-1.98411 -10.012584,-2.01449 -0.0148,-0.0164 -0.03855,-0.98047 -0.05278,-2.1424 -0.02373,-1.93853 -0.02064,-2.11459 0.03751,-2.13691 0.03486,-0.0134 0.317734,0.0295 0.628618,0.0954 0.676935,0.14334 31.719007,6.31171 32.660778,6.49002 0.360687,0.0683 0.685389,0.13937 0.721561,0.15794 0.06079,0.0312 0.0668,0.2329 0.07947,2.66619 0.01198,2.30413 0.02182,2.66595 0.07867,2.90134 0.137781,0.57038 0.509737,1.1387 0.828816,1.26637 0.195172,0.0781 2.146497,0.34835 2.303077,0.31898 0.06754,-0.0127 0.195072,-0.0849 0.283395,-0.16049 0.08832,-0.0756 0.160581,-0.11535 0.160581,-0.0883 0,0.027 -0.516443,0.57086 -1.147649,1.20852 -1.045594,1.05629 -1.159651,1.15995 -1.282661,1.16583 -0.07426,0.004 -1.131603,-0.11291 -2.349656,-0.25881 z"
       style="fill:#343434;stroke:#ffffff;stroke-width:0.60275567;stroke-miterlimit:4;stroke-dasharray:none" />
    <path
       inkscape:connector-curvature="0"
       id="path4498"
       d="m -111.11157,-295.8781 c -0.0718,-0.0313 -0.14808,-0.11076 -0.19288,-0.20102 -0.0729,-0.14682 -0.0741,-0.5956 -0.0741,-27.03702 0,-25.85027 0.003,-26.89889 0.0701,-27.17705 0.0952,-0.3929 0.17622,-0.56383 0.42433,-0.89471 0.18472,-0.24636 2.99675,-3.09559 2.99675,-3.0364 0,0.0124 -0.0343,0.15661 -0.0762,0.32046 -0.0754,0.29477 -0.0764,0.57807 -0.10084,26.99998 -0.0175,18.98095 -0.0127,26.77296 0.0168,26.94723 0.0742,0.43822 0.34789,0.65305 0.70919,0.55661 0.1428,-0.0381 0.002,0.11334 -1.59456,1.7134 -1.54337,1.54689 -1.89402,1.86853 -2.02965,1.86175 -0.0166,-9.1e-4 -0.0836,-0.0248 -0.14895,-0.0532 z m 10.05663,-12.18888 c 1.03162,-1.47913 2.135028,-3.03792 2.172313,-3.06887 0.04452,-0.0369 1.013611,-0.0854 17.034277,-0.85194 20.297985,-0.97118 18.400834,-0.87295 18.648563,-0.96564 0.122308,-0.0457 0.337956,-0.16084 0.479218,-0.25574 0.20295,-0.13634 -0.135744,0.21916 -1.614115,1.69426 -1.695887,1.69212 -1.896959,1.88022 -2.148912,2.01022 -0.202289,0.10438 -0.359817,0.15401 -0.578645,0.18231 -0.165374,0.0214 -7.799931,0.39368 -16.965675,0.82733 -9.165743,0.43364 -16.810544,0.79926 -16.988454,0.81248 l -0.32346,0.0241 z m 32.086586,-11.97499 c -0.0023,-0.6936 -0.01549,-1.37334 -0.02893,-1.51055 -0.02424,-0.24746 -0.02551,-0.2497 -0.159442,-0.27829 -0.07426,-0.0159 -1.428288,-0.10855 -3.008956,-0.206 -2.089061,-0.12879 -2.918314,-0.1931 -3.036422,-0.23548 -0.316236,-0.11346 -0.677625,-0.61599 -0.792088,-1.10145 -0.07162,-0.30376 -0.06797,-3.49407 0.0046,-3.88664 0.06583,-0.35685 0.206085,-0.77435 0.330001,-0.98233 0.05191,-0.0871 0.789259,-0.85209 1.638574,-1.69994 1.511021,-1.50842 1.542956,-1.53744 1.485848,-1.35017 -0.160727,0.52703 -0.170441,0.66405 -0.170441,2.40393 0,1.82479 0.0097,1.93014 0.215903,2.3416 0.13348,0.26635 0.372488,0.53706 0.583211,0.66055 0.174578,0.10231 0.185075,0.10343 2.16669,0.23058 1.095189,0.0703 2.459958,0.15843 3.032817,0.19589 l 1.041562,0.0681 0.02788,0.55936 c 0.01535,0.30765 0.01535,1.79187 0,3.29828 l -0.02788,2.73892 -1.64914,0.007 -1.649139,0.007 z m 2.245386,-11.73889 c -1.218081,-0.14588 -2.224924,-0.27546 -2.237431,-0.28796 -0.01248,-0.0125 -0.02761,-1.15362 -0.03353,-2.53584 -0.0059,-1.38223 -0.02328,-2.5252 -0.03859,-2.53994 -0.01526,-0.0147 -1.095385,-0.23622 -2.400231,-0.49218 -5.267468,-1.03325 -28.160221,-5.59206 -28.197691,-5.61522 -0.04932,-0.0305 -0.05691,-4.22511 -0.0076,-4.22511 0.0522,0 1.138188,0.22357 1.201886,0.24743 0.05471,0.0205 30.02542,5.97027 31.131125,6.18014 1.352166,0.25666 1.528193,0.29084 1.591275,0.30903 0.06339,0.0183 0.06751,0.17057 0.06766,2.49539 0,2.6751 0.01508,2.92086 0.208485,3.43467 0.16049,0.42638 0.419026,0.7605 0.697901,0.90192 0.109665,0.0556 0.44933,0.11977 1.17409,0.22175 0.95625,0.13457 1.140743,0.14509 1.333377,0.0761 0.04242,-0.0152 -0.400113,0.45202 -0.983438,1.03828 -0.938995,0.94372 -1.073884,1.0654 -1.176577,1.06136 -0.06379,-0.003 -1.112603,-0.12392 -2.330684,-0.2698 z"
       style="fill:#5f0026;fill-opacity:1;stroke:#ffffff;stroke-width:0.60275567;stroke-miterlimit:4;stroke-dasharray:none" />
    <text
       xml:space="preserve"
       style="font-style:normal;font-variant:normal;font-weight:normal;font-stretch:normal;font-size:34.1965332px;line-height:48.46753311px;font-family:'Press Start 2P';-inkscape-font-specification:'Press Start 2P';text-align:center;letter-spacing:0.01709828px;word-spacing:0px;text-anchor:middle;opacity:0.25;fill:#ede787;fill-opacity:1;stroke:none;stroke-width:0.85491335;"
       x="165.91339"
       y="-292.49017"
       id="text4540"
       transform="rotate(-15)"><tspan
         sodipodi:role="line"
         id="tspan4538"
         x="183.02876"
         y="-292.49017"
         style="font-style:normal;font-variant:normal;font-weight:normal;font-stretch:normal;line-height:48.46753311px;font-family:'Press Start 2P';-inkscape-font-specification:'Press Start 2P';text-align:center;text-anchor:middle;fill:#ede787;fill-opacity:1;stroke-width:0.85491335;">SUMO   </tspan><tspan
         sodipodi:role="line"
         x="165.92194"
         y="-244.02264"
         style="font-style:normal;font-variant:normal;font-weight:normal;font-stretch:normal;line-height:48.46753311px;font-family:'Press Start 2P';-inkscape-font-specification:'Press Start 2P';text-align:center;text-anchor:middle;fill:#ede787;fill-opacity:1;stroke-width:0.85491335;"
         id="tspan4542">GeekFest</tspan></text>
    <text
       transform="rotate(-15)"
       id="text4536"
       y="-295.85776"
       x="171.74631"
       style="font-style:normal;font-variant:normal;font-weight:normal;font-stretch:normal;font-size:34.1965332px;line-height:48.46753311px;font-family:'Press Start 2P';-inkscape-font-specification:'Press Start 2P';text-align:center;letter-spacing:0.01709828px;word-spacing:0px;text-anchor:middle;opacity:0.5;fill:#bdbb85;fill-opacity:1;stroke:none;stroke-width:0.85491335;"
       xml:space="preserve"><tspan
         style="font-style:normal;font-variant:normal;font-weight:normal;font-stretch:normal;line-height:48.46753311px;font-family:'Press Start 2P';-inkscape-font-specification:'Press Start 2P';text-align:center;text-anchor:middle;fill:#bdbb85;fill-opacity:1;stroke-width:0.85491335;"
         y="-295.85776"
         x="188.86168"
         id="tspan4532"
         sodipodi:role="line">SUMO   </tspan><tspan
         id="tspan4534"
         style="font-style:normal;font-variant:normal;font-weight:normal;font-stretch:normal;line-height:48.46753311px;font-family:'Press Start 2P';-inkscape-font-specification:'Press Start 2P';text-align:center;text-anchor:middle;fill:#bdbb85;fill-opacity:1;stroke-width:0.85491335;"
         y="-247.39023"
         x="171.75485"
         sodipodi:role="line">GeekFest</tspan></text>
    <text
       transform="rotate(-15)"
       id="text4530"
       y="-298.85117"
       x="176.93112"
       style="font-style:normal;font-variant:normal;font-weight:normal;font-stretch:normal;font-size:34.1965332px;line-height:48.46753311px;font-family:'Press Start 2P';-inkscape-font-specification:'Press Start 2P';text-align:center;letter-spacing:0.01709828px;word-spacing:0px;text-anchor:middle;fill:#8787de;fill-opacity:1;stroke:#343459;stroke-width:1;stroke-opacity:1;stroke-miterlimit:4;stroke-dasharray:none"
       xml:space="preserve"><tspan
         style="font-style:normal;font-variant:normal;font-weight:normal;font-stretch:normal;line-height:48.46753311px;font-family:'Press Start 2P';-inkscape-font-specification:'Press Start 2P';text-align:center;text-anchor:middle;fill:#8787de;fill-opacity:1;stroke-width:1;stroke:#343459;stroke-opacity:1;stroke-miterlimit:4;stroke-dasharray:none"
         y="-298.85117"
         x="194.04649"
         id="tspan4526"
         sodipodi:role="line">SUMO   </tspan><tspan
         id="tspan4528"
         style="font-style:normal;font-variant:normal;font-weight:normal;font-stretch:normal;line-height:48.46753311px;font-family:'Press Start 2P';-inkscape-font-specification:'Press Start 2P';text-align:center;text-anchor:middle;fill:#8787de;fill-opacity:1;stroke-width:1;stroke:#343459;stroke-opacity:1;stroke-miterlimit:4;stroke-dasharray:none"
         y="-250.38364"
         x="176.93967"
         sodipodi:role="line">GeekFest</tspan></text>
  </g>
</svg>
